<?xml version="1.0" standalone="no"?>
<!DOCTYPE svg PUBLIC "-//W3C//DTD SVG 20010904//EN"
 "http://www.w3.org/TR/2001/REC-SVG-20010904/DTD/svg10.dtd">
<svg version="1.0" xmlns="http://www.w3.org/2000/svg"
 width="260.000000pt" height="260.000000pt" viewBox="0 0 260.000000 260.000000"
 preserveAspectRatio="xMidYMid meet">
<metadata>
Created by potrace 1.11, written by Peter Selinger 2001-2013
</metadata>
<g transform="translate(0.000000,260.000000) scale(0.100000,-0.100000)"
fill="#000000" stroke="none">
<path d="M1079 2584 c-154 -28 -310 -85 -444 -165 -208 -122 -387 -313 -492
-524 -111 -222 -149 -398 -140 -647 4 -121 11 -175 32 -258 62 -240 169 -433
335 -601 203 -205 440 -328 734 -379 86 -15 318 -12 413 4 546 97 973 521
1068 1063 19 113 20 335 0 446 -53 306 -220 591 -463 789 -164 134 -387 235
-602 273 -105 19 -337 18 -441 -1z"/>
</g>
</svg>
